<mxfile host="Electron" modified="2024-07-05T03:01:30.108Z" agent="Mozilla/5.0 (X11; Linux x86_64) AppleWebKit/537.36 (KHTML, like Gecko) draw.io/24.6.1 Chrome/124.0.6367.207 Electron/30.0.6 Safari/537.36" etag="uwTKPxstrxQx5dNBSN0a" version="24.6.1" type="device">
  <diagram name="Page-1" id="1_d9H8F0448KhWblUSOE">
    <mxGraphModel dx="1659" dy="2080" grid="1" gridSize="10" guides="1" tooltips="1" connect="1" arrows="1" fold="1" page="1" pageScale="1" pageWidth="850" pageHeight="1100" math="0" shadow="0">
      <root>
        <mxCell id="0" />
        <mxCell id="1" parent="0" />
        <mxCell id="xQxRE1rsbrCVRHrQiKpw-1" value="" style="rounded=1;whiteSpace=wrap;html=1;strokeWidth=2;fillWeight=4;hachureGap=8;hachureAngle=45;fillColor=none;sketch=1;" parent="1" vertex="1">
          <mxGeometry x="170" y="320" width="136.36" height="240" as="geometry" />
        </mxCell>
        <mxCell id="xQxRE1rsbrCVRHrQiKpw-2" value="Attacker&lt;div&gt;10.10.17.52&lt;/div&gt;" style="verticalLabelPosition=bottom;html=1;verticalAlign=top;align=center;strokeColor=none;fillColor=#00BEF2;shape=mxgraph.azure.laptop;pointerEvents=1;" parent="1" vertex="1">
          <mxGeometry x="179.85" y="440" width="116.67" height="70" as="geometry" />
        </mxCell>
        <mxCell id="xQxRE1rsbrCVRHrQiKpw-6" style="edgeStyle=orthogonalEdgeStyle;rounded=0;orthogonalLoop=1;jettySize=auto;html=1;" parent="1" source="xQxRE1rsbrCVRHrQiKpw-3" target="xQxRE1rsbrCVRHrQiKpw-4" edge="1">
          <mxGeometry relative="1" as="geometry" />
        </mxCell>
        <mxCell id="4V0UG589_IZ1h-ml_QK1-6" style="edgeStyle=orthogonalEdgeStyle;rounded=0;orthogonalLoop=1;jettySize=auto;html=1;" edge="1" parent="1" source="xQxRE1rsbrCVRHrQiKpw-3" target="4V0UG589_IZ1h-ml_QK1-1">
          <mxGeometry relative="1" as="geometry">
            <Array as="points">
              <mxPoint x="238" y="430" />
              <mxPoint x="470" y="430" />
              <mxPoint x="470" y="550" />
            </Array>
          </mxGeometry>
        </mxCell>
        <mxCell id="xQxRE1rsbrCVRHrQiKpw-3" value="NIX01&lt;div&gt;10.10.110.123&lt;/div&gt;&lt;div&gt;172.16.1.23&lt;br&gt;&lt;/div&gt;" style="image;aspect=fixed;perimeter=ellipsePerimeter;html=1;align=center;shadow=0;dashed=0;spacingTop=3;image=img/lib/active_directory/web_server.svg;labelBackgroundColor=#FC1A1A;" parent="1" vertex="1">
          <mxGeometry x="202.18" y="260" width="72" height="90" as="geometry" />
        </mxCell>
        <mxCell id="xQxRE1rsbrCVRHrQiKpw-4" value="CORP.LOCAL" style="ellipse;whiteSpace=wrap;html=1;aspect=fixed;fillColor=#60a917;fontColor=#ffffff;strokeColor=#2D7600;" parent="1" vertex="1">
          <mxGeometry x="420" y="-100" width="560" height="560" as="geometry" />
        </mxCell>
        <mxCell id="4V0UG589_IZ1h-ml_QK1-5" style="edgeStyle=orthogonalEdgeStyle;rounded=0;orthogonalLoop=1;jettySize=auto;html=1;entryX=0;entryY=0;entryDx=0;entryDy=0;" edge="1" parent="1" source="xQxRE1rsbrCVRHrQiKpw-5" target="4V0UG589_IZ1h-ml_QK1-2">
          <mxGeometry relative="1" as="geometry" />
        </mxCell>
        <mxCell id="xQxRE1rsbrCVRHrQiKpw-5" value="DC01" style="image;aspect=fixed;perimeter=ellipsePerimeter;html=1;align=center;shadow=0;dashed=0;spacingTop=3;image=img/lib/active_directory/domain_controller.svg;labelBackgroundColor=none;" parent="1" vertex="1">
          <mxGeometry x="610" y="-80" width="84" height="120" as="geometry" />
        </mxCell>
        <mxCell id="xQxRE1rsbrCVRHrQiKpw-7" value="SQL01&lt;div&gt;172.16.1.15&lt;/div&gt;" style="sketch=0;pointerEvents=1;shadow=0;dashed=0;html=1;strokeColor=#B20000;fillColor=#e51400;labelPosition=center;verticalLabelPosition=bottom;verticalAlign=top;outlineConnect=0;align=center;shape=mxgraph.office.devices.workstation_pc;fontColor=#ffffff;" parent="1" vertex="1">
          <mxGeometry x="500" y="80" width="62.88" height="70" as="geometry" />
        </mxCell>
        <mxCell id="xQxRE1rsbrCVRHrQiKpw-8" value="WEB-WIN01" style="sketch=0;pointerEvents=1;shadow=0;dashed=0;html=1;strokeColor=none;fillColor=#505050;labelPosition=center;verticalLabelPosition=bottom;verticalAlign=top;outlineConnect=0;align=center;shape=mxgraph.office.devices.workstation_pc;" parent="1" vertex="1">
          <mxGeometry x="540" y="190" width="62.88" height="70" as="geometry" />
        </mxCell>
        <mxCell id="xQxRE1rsbrCVRHrQiKpw-9" value="WSADM&lt;div&gt;172.16.1.36&lt;/div&gt;" style="sketch=0;pointerEvents=1;shadow=0;dashed=0;html=1;strokeColor=#B20000;fillColor=#e51400;labelPosition=center;verticalLabelPosition=bottom;verticalAlign=top;outlineConnect=0;align=center;shape=mxgraph.office.devices.workstation_pc;fontColor=#ffffff;" parent="1" vertex="1">
          <mxGeometry x="740" y="300" width="62.88" height="70" as="geometry" />
        </mxCell>
        <mxCell id="xQxRE1rsbrCVRHrQiKpw-10" value="WS02&lt;div&gt;172.16.1.101&lt;/div&gt;" style="sketch=0;pointerEvents=1;shadow=0;dashed=0;html=1;strokeColor=#B20000;fillColor=#e51400;labelPosition=center;verticalLabelPosition=bottom;verticalAlign=top;outlineConnect=0;align=center;shape=mxgraph.office.devices.workstation_pc;fontColor=#ffffff;" parent="1" vertex="1">
          <mxGeometry x="820" y="170" width="62.88" height="70" as="geometry" />
        </mxCell>
        <mxCell id="xQxRE1rsbrCVRHrQiKpw-11" value="FS01" style="sketch=0;pointerEvents=1;shadow=0;dashed=0;html=1;strokeColor=none;fillColor=#505050;labelPosition=center;verticalLabelPosition=bottom;verticalAlign=top;outlineConnect=0;align=center;shape=mxgraph.office.devices.workstation_pc;" parent="1" vertex="1">
          <mxGeometry x="810" y="40" width="62.88" height="70" as="geometry" />
        </mxCell>
        <mxCell id="xQxRE1rsbrCVRHrQiKpw-12" value="MS01&lt;div&gt;172.16.1.30&lt;/div&gt;" style="sketch=0;pointerEvents=1;shadow=0;dashed=0;html=1;strokeColor=#B20000;fillColor=#e51400;labelPosition=center;verticalLabelPosition=bottom;verticalAlign=top;outlineConnect=0;align=center;shape=mxgraph.office.devices.workstation_pc;fontColor=#ffffff;" parent="1" vertex="1">
          <mxGeometry x="580" y="310" width="62.88" height="70" as="geometry" />
        </mxCell>
        <mxCell id="4V0UG589_IZ1h-ml_QK1-1" value="JOE-LPTP" style="sketch=0;pointerEvents=1;shadow=0;dashed=0;html=1;strokeColor=none;fillColor=#505050;labelPosition=center;verticalLabelPosition=bottom;verticalAlign=top;outlineConnect=0;align=center;shape=mxgraph.office.devices.workstation_pc;" vertex="1" parent="1">
          <mxGeometry x="940" y="510" width="62.88" height="70" as="geometry" />
        </mxCell>
        <mxCell id="4V0UG589_IZ1h-ml_QK1-2" value="LAB.OFFSHORE.LOCAL" style="ellipse;whiteSpace=wrap;html=1;aspect=fixed;fillColor=#f0a30a;fontColor=#000000;strokeColor=#BD7000;" vertex="1" parent="1">
          <mxGeometry x="1040" y="-90" width="560" height="560" as="geometry" />
        </mxCell>
        <mxCell id="4V0UG589_IZ1h-ml_QK1-3" value="DC0" style="image;aspect=fixed;perimeter=ellipsePerimeter;html=1;align=center;shadow=0;dashed=0;spacingTop=3;image=img/lib/active_directory/domain_controller.svg;labelBackgroundColor=none;" vertex="1" parent="1">
          <mxGeometry x="1270" y="-70" width="84" height="120" as="geometry" />
        </mxCell>
        <mxCell id="4V0UG589_IZ1h-ml_QK1-4" value="SRV01" style="sketch=0;pointerEvents=1;shadow=0;dashed=0;html=1;strokeColor=none;fillColor=#505050;labelPosition=center;verticalLabelPosition=bottom;verticalAlign=top;outlineConnect=0;align=center;shape=mxgraph.office.devices.workstation_pc;" vertex="1" parent="1">
          <mxGeometry x="1300" y="290" width="62.88" height="70" as="geometry" />
        </mxCell>
        <mxCell id="4V0UG589_IZ1h-ml_QK1-7" style="edgeStyle=orthogonalEdgeStyle;rounded=0;orthogonalLoop=1;jettySize=auto;html=1;entryX=0.004;entryY=0.482;entryDx=0;entryDy=0;entryPerimeter=0;strokeWidth=8;shape=link;fillColor=#fa6800;strokeColor=#C73500;" edge="1" parent="1" source="xQxRE1rsbrCVRHrQiKpw-4" target="4V0UG589_IZ1h-ml_QK1-2">
          <mxGeometry relative="1" as="geometry" />
        </mxCell>
      </root>
    </mxGraphModel>
  </diagram>
</mxfile>
